solid OpenSCAD_Model
  facet normal -0.707107 -0.707107 -0.000000
    outer loop
      vertex -6.005000 -27.487000 0.000000
      vertex -2.487000 -31.005000 0.000000
      vertex -6.005000 -27.487000 10.000000
    endloop
  endfacet
  facet normal -0.707107 -0.707107 0.000000
    outer loop
      vertex -6.005000 -27.487000 10.000000
      vertex -2.487000 -31.005000 0.000000
      vertex -2.487000 -31.005000 10.000000
    endloop
  endfacet
  facet normal -0.000000 -0.000000 -1.000000
    outer loop
      vertex -6.005000 -27.487000 0.000000
      vertex -6.005000 -22.513000 0.000000
      vertex -2.487000 -31.005000 0.000000
    endloop
  endfacet
  facet normal 0.000000 0.000000 -1.000000
    outer loop
      vertex -2.487000 -31.005000 0.000000
      vertex -6.005000 -22.513000 0.000000
      vertex -6.000000 -22.508000 0.000000
    endloop
  endfacet
  facet normal 0.000000 0.000000 -1.000000
    outer loop
      vertex -3.002000 -23.756000 0.000000
      vertex -6.000000 -22.508000 0.000000
      vertex -6.000000 22.508000 0.000000
    endloop
  endfacet
  facet normal 0.000000 0.000000 -1.000000
    outer loop
      vertex -6.000000 22.508000 0.000000
      vertex -6.005000 22.513000 0.000000
      vertex -6.005000 27.487000 0.000000
    endloop
  endfacet
  facet normal 0.000000 -0.000000 -1.000000
    outer loop
      vertex -3.002000 26.244000 0.000000
      vertex -6.005000 27.487000 0.000000
      vertex -2.487000 31.005000 0.000000
    endloop
  endfacet
  facet normal 0.000000 -0.000000 -1.000000
    outer loop
      vertex -1.244000 28.003000 0.000000
      vertex -2.487000 31.005000 0.000000
      vertex 2.487000 31.005000 0.000000
    endloop
  endfacet
  facet normal 0.000000 -0.000000 -1.000000
    outer loop
      vertex 3.003000 26.244000 0.000000
      vertex 2.487000 31.005000 0.000000
      vertex 6.005000 27.487000 0.000000
    endloop
  endfacet
  facet normal 0.000000 0.000000 -1.000000
    outer loop
      vertex 6.000000 22.508000 0.000000
      vertex 6.005000 27.487000 0.000000
      vertex 6.005000 22.513000 0.000000
    endloop
  endfacet
  facet normal 0.000000 0.000000 -1.000000
    outer loop
      vertex -3.002000 -23.756000 0.000000
      vertex -6.000000 22.508000 0.000000
      vertex -6.005000 27.487000 0.000000
    endloop
  endfacet
  facet normal -0.000000 0.000000 -1.000000
    outer loop
      vertex 3.003000 -23.756000 0.000000
      vertex 6.005000 -22.513000 0.000000
      vertex 3.002000 -26.244000 0.000000
    endloop
  endfacet
  facet normal -0.000000 0.000000 -1.000000
    outer loop
      vertex 3.002000 -26.244000 0.000000
      vertex 6.005000 -22.513000 0.000000
      vertex 6.005000 -27.487000 0.000000
    endloop
  endfacet
  facet normal -0.000000 0.000000 -1.000000
    outer loop
      vertex -2.487000 -31.005000 0.000000
      vertex 6.005000 -27.487000 0.000000
      vertex 2.487000 -31.005000 0.000000
    endloop
  endfacet
  facet normal 0.000000 -0.000000 -1.000000
    outer loop
      vertex -3.003000 -26.244000 0.000000
      vertex -6.000000 -22.508000 0.000000
      vertex -3.002000 -23.756000 0.000000
    endloop
  endfacet
  facet normal 0.000000 0.000000 -1.000000
    outer loop
      vertex -1.244000 -28.002000 0.000000
      vertex -2.487000 -31.005000 0.000000
      vertex -3.003000 -26.244000 0.000000
    endloop
  endfacet
  facet normal 0.000000 0.000000 -1.000000
    outer loop
      vertex -2.487000 -31.005000 0.000000
      vertex -6.000000 -22.508000 0.000000
      vertex -3.003000 -26.244000 0.000000
    endloop
  endfacet
  facet normal 0.000000 0.000000 -1.000000
    outer loop
      vertex -1.244000 21.998000 0.000000
      vertex -3.002000 -23.756000 0.000000
      vertex -3.003000 23.756000 0.000000
    endloop
  endfacet
  facet normal 0.000000 0.000000 -1.000000
    outer loop
      vertex 3.003000 -23.756000 0.000000
      vertex 6.000000 -22.508000 0.000000
      vertex 6.005000 -22.513000 0.000000
    endloop
  endfacet
  facet normal 0.000000 0.000000 -1.000000
    outer loop
      vertex -2.487000 -31.005000 0.000000
      vertex 1.244000 -28.003000 0.000000
      vertex 6.005000 -27.487000 0.000000
    endloop
  endfacet
  facet normal 0.000000 0.000000 -1.000000
    outer loop
      vertex 1.244000 -28.003000 0.000000
      vertex 3.002000 -26.244000 0.000000
      vertex 6.005000 -27.487000 0.000000
    endloop
  endfacet
  facet normal 0.000000 0.000000 -1.000000
    outer loop
      vertex -3.002000 -23.756000 0.000000
      vertex -6.005000 27.487000 0.000000
      vertex -3.003000 23.756000 0.000000
    endloop
  endfacet
  facet normal -0.000000 0.000000 -1.000000
    outer loop
      vertex -1.244000 -21.997000 0.000000
      vertex 6.000000 22.508000 0.000000
      vertex 1.244000 -21.998000 0.000000
    endloop
  endfacet
  facet normal 0.000000 0.000000 -1.000000
    outer loop
      vertex 3.002000 23.756000 0.000000
      vertex -3.002000 -23.756000 0.000000
      vertex 1.244000 21.997000 0.000000
    endloop
  endfacet
  facet normal 0.000000 -0.000000 -1.000000
    outer loop
      vertex -3.003000 23.756000 0.000000
      vertex -6.005000 27.487000 0.000000
      vertex -3.002000 26.244000 0.000000
    endloop
  endfacet
  facet normal 0.000000 0.000000 -1.000000
    outer loop
      vertex -1.244000 -21.997000 0.000000
      vertex 6.005000 27.487000 0.000000
      vertex 6.000000 22.508000 0.000000
    endloop
  endfacet
  facet normal 0.000000 0.000000 -1.000000
    outer loop
      vertex -3.002000 26.244000 0.000000
      vertex -2.487000 31.005000 0.000000
      vertex -1.244000 28.003000 0.000000
    endloop
  endfacet
  facet normal -0.000000 0.000000 -1.000000
    outer loop
      vertex 1.244000 28.002000 0.000000
      vertex 2.487000 31.005000 0.000000
      vertex 3.003000 26.244000 0.000000
    endloop
  endfacet
  facet normal 0.000000 0.000000 -1.000000
    outer loop
      vertex -1.244000 -21.997000 0.000000
      vertex 3.002000 23.756000 0.000000
      vertex 6.005000 27.487000 0.000000
    endloop
  endfacet
  facet normal 0.000000 0.000000 -1.000000
    outer loop
      vertex 3.002000 23.756000 0.000000
      vertex 3.003000 26.244000 0.000000
      vertex 6.005000 27.487000 0.000000
    endloop
  endfacet
  facet normal -0.000000 0.000000 -1.000000
    outer loop
      vertex -1.244000 28.003000 0.000000
      vertex 2.487000 31.005000 0.000000
      vertex 1.244000 28.002000 0.000000
    endloop
  endfacet
  facet normal 0.000000 0.000000 -1.000000
    outer loop
      vertex 6.000000 -22.508000 0.000000
      vertex 3.003000 -23.756000 0.000000
      vertex 1.244000 -21.998000 0.000000
    endloop
  endfacet
  facet normal 0.000000 0.000000 -1.000000
    outer loop
      vertex 1.244000 -28.003000 0.000000
      vertex -2.487000 -31.005000 0.000000
      vertex -1.244000 -28.002000 0.000000
    endloop
  endfacet
  facet normal 0.000000 0.000000 -1.000000
    outer loop
      vertex 3.002000 23.756000 0.000000
      vertex -1.244000 -21.997000 0.000000
      vertex -3.002000 -23.756000 0.000000
    endloop
  endfacet
  facet normal 0.000000 0.000000 -1.000000
    outer loop
      vertex 6.000000 -22.508000 0.000000
      vertex 1.244000 -21.998000 0.000000
      vertex 6.000000 22.508000 0.000000
    endloop
  endfacet
  facet normal 0.000000 0.000000 -1.000000
    outer loop
      vertex -3.002000 -23.756000 0.000000
      vertex -1.244000 21.998000 0.000000
      vertex 1.244000 21.997000 0.000000
    endloop
  endfacet
  facet normal -1.000000 -0.000000 -0.000000
    outer loop
      vertex -6.005000 -27.487000 0.000000
      vertex -6.005000 -27.487000 10.000000
      vertex -6.005000 -22.513000 0.000000
    endloop
  endfacet
  facet normal -1.000000 0.000000 0.000000
    outer loop
      vertex -6.005000 -22.513000 0.000000
      vertex -6.005000 -27.487000 10.000000
      vertex -6.005000 -22.513000 10.000000
    endloop
  endfacet
  facet normal 0.000000 -0.000000 1.000000
    outer loop
      vertex -6.005000 -22.513000 10.000000
      vertex -6.005000 -27.487000 10.000000
      vertex -2.487000 -31.005000 10.000000
    endloop
  endfacet
  facet normal 0.000000 0.000000 1.000000
    outer loop
      vertex -3.002000 -23.756000 10.000000
      vertex -1.244000 -21.997000 10.000000
      vertex -6.000000 -22.508000 10.000000
    endloop
  endfacet
  facet normal -0.000000 -0.000000 1.000000
    outer loop
      vertex -3.003000 -26.244000 10.000000
      vertex -6.005000 -22.513000 10.000000
      vertex -2.487000 -31.005000 10.000000
    endloop
  endfacet
  facet normal -0.000000 -0.000000 1.000000
    outer loop
      vertex 1.244000 -28.003000 10.000000
      vertex -1.244000 -28.002000 10.000000
      vertex 2.487000 -31.005000 10.000000
    endloop
  endfacet
  facet normal 0.000000 0.000000 1.000000
    outer loop
      vertex 1.244000 -21.998000 10.000000
      vertex 6.005000 -22.513000 10.000000
      vertex 6.000000 -22.508000 10.000000
    endloop
  endfacet
  facet normal 0.000000 0.000000 1.000000
    outer loop
      vertex 6.005000 27.487000 10.000000
      vertex 6.000000 22.508000 10.000000
      vertex 6.005000 22.513000 10.000000
    endloop
  endfacet
  facet normal 0.000000 -0.000000 1.000000
    outer loop
      vertex -6.005000 27.487000 10.000000
      vertex -6.005000 22.513000 10.000000
      vertex -2.487000 31.005000 10.000000
    endloop
  endfacet
  facet normal 0.000000 0.000000 1.000000
    outer loop
      vertex -6.005000 22.513000 10.000000
      vertex -6.000000 22.508000 10.000000
      vertex -2.487000 31.005000 10.000000
    endloop
  endfacet
  facet normal -0.000000 0.000000 1.000000
    outer loop
      vertex -1.244000 -28.002000 10.000000
      vertex -3.003000 -26.244000 10.000000
      vertex -2.487000 -31.005000 10.000000
    endloop
  endfacet
  facet normal 0.000000 0.000000 1.000000
    outer loop
      vertex 1.244000 -21.998000 10.000000
      vertex 3.003000 -23.756000 10.000000
      vertex 6.005000 -22.513000 10.000000
    endloop
  endfacet
  facet normal 0.000000 0.000000 1.000000
    outer loop
      vertex 6.000000 22.508000 10.000000
      vertex -6.000000 -22.508000 10.000000
      vertex -1.244000 -21.997000 10.000000
    endloop
  endfacet
  facet normal 0.000000 0.000000 1.000000
    outer loop
      vertex 6.000000 22.508000 10.000000
      vertex 1.244000 -21.998000 10.000000
      vertex 6.000000 -22.508000 10.000000
    endloop
  endfacet
  facet normal 0.000000 0.000000 1.000000
    outer loop
      vertex 6.000000 22.508000 10.000000
      vertex -1.244000 -21.997000 10.000000
      vertex 1.244000 -21.998000 10.000000
    endloop
  endfacet
  facet normal 0.000000 0.000000 1.000000
    outer loop
      vertex 6.005000 -22.513000 10.000000
      vertex 3.003000 -23.756000 10.000000
      vertex 6.005000 -27.487000 10.000000
    endloop
  endfacet
  facet normal -0.000000 0.000000 1.000000
    outer loop
      vertex 6.005000 -27.487000 10.000000
      vertex 3.002000 -26.244000 10.000000
      vertex 2.487000 -31.005000 10.000000
    endloop
  endfacet
  facet normal 0.000000 -0.000000 1.000000
    outer loop
      vertex 3.003000 -23.756000 10.000000
      vertex 3.002000 -26.244000 10.000000
      vertex 6.005000 -27.487000 10.000000
    endloop
  endfacet
  facet normal 0.000000 0.000000 1.000000
    outer loop
      vertex 3.002000 -26.244000 10.000000
      vertex 1.244000 -28.003000 10.000000
      vertex 2.487000 -31.005000 10.000000
    endloop
  endfacet
  facet normal 0.000000 0.000000 1.000000
    outer loop
      vertex -3.002000 -23.756000 10.000000
      vertex -6.000000 -22.508000 10.000000
      vertex -6.005000 -22.513000 10.000000
    endloop
  endfacet
  facet normal -0.000000 0.000000 1.000000
    outer loop
      vertex 2.487000 -31.005000 10.000000
      vertex -1.244000 -28.002000 10.000000
      vertex -2.487000 -31.005000 10.000000
    endloop
  endfacet
  facet normal 0.000000 0.000000 1.000000
    outer loop
      vertex 1.244000 28.002000 10.000000
      vertex 3.003000 26.244000 10.000000
      vertex 2.487000 31.005000 10.000000
    endloop
  endfacet
  facet normal 0.000000 0.000000 1.000000
    outer loop
      vertex -6.000000 22.508000 10.000000
      vertex -3.002000 26.244000 10.000000
      vertex -2.487000 31.005000 10.000000
    endloop
  endfacet
  facet normal 0.000000 0.000000 1.000000
    outer loop
      vertex -6.000000 22.508000 10.000000
      vertex -3.003000 23.756000 10.000000
      vertex -3.002000 26.244000 10.000000
    endloop
  endfacet
  facet normal 0.000000 0.000000 1.000000
    outer loop
      vertex -2.487000 31.005000 10.000000
      vertex -1.244000 28.003000 10.000000
      vertex 2.487000 31.005000 10.000000
    endloop
  endfacet
  facet normal 0.000000 0.000000 1.000000
    outer loop
      vertex -1.244000 28.003000 10.000000
      vertex 1.244000 28.002000 10.000000
      vertex 2.487000 31.005000 10.000000
    endloop
  endfacet
  facet normal 0.000000 0.000000 1.000000
    outer loop
      vertex 2.487000 31.005000 10.000000
      vertex 3.003000 26.244000 10.000000
      vertex 6.005000 27.487000 10.000000
    endloop
  endfacet
  facet normal 0.000000 0.000000 1.000000
    outer loop
      vertex -3.003000 -26.244000 10.000000
      vertex -3.002000 -23.756000 10.000000
      vertex -6.005000 -22.513000 10.000000
    endloop
  endfacet
  facet normal 0.000000 -0.000000 1.000000
    outer loop
      vertex 3.003000 26.244000 10.000000
      vertex 3.002000 23.756000 10.000000
      vertex 6.005000 27.487000 10.000000
    endloop
  endfacet
  facet normal 0.000000 0.000000 1.000000
    outer loop
      vertex -3.002000 26.244000 10.000000
      vertex -1.244000 28.003000 10.000000
      vertex -2.487000 31.005000 10.000000
    endloop
  endfacet
  facet normal 0.000000 0.000000 1.000000
    outer loop
      vertex -6.000000 22.508000 10.000000
      vertex -1.244000 21.998000 10.000000
      vertex -3.003000 23.756000 10.000000
    endloop
  endfacet
  facet normal 0.000000 0.000000 1.000000
    outer loop
      vertex 3.002000 23.756000 10.000000
      vertex 6.000000 22.508000 10.000000
      vertex 6.005000 27.487000 10.000000
    endloop
  endfacet
  facet normal 0.000000 0.000000 1.000000
    outer loop
      vertex 1.244000 21.997000 10.000000
      vertex 6.000000 22.508000 10.000000
      vertex 3.002000 23.756000 10.000000
    endloop
  endfacet
  facet normal 0.000000 -0.000000 1.000000
    outer loop
      vertex 1.244000 21.997000 10.000000
      vertex -6.000000 -22.508000 10.000000
      vertex 6.000000 22.508000 10.000000
    endloop
  endfacet
  facet normal 0.000000 -0.000000 1.000000
    outer loop
      vertex -1.244000 21.998000 10.000000
      vertex -6.000000 -22.508000 10.000000
      vertex 1.244000 21.997000 10.000000
    endloop
  endfacet
  facet normal 0.000000 -0.000000 1.000000
    outer loop
      vertex -6.000000 22.508000 10.000000
      vertex -6.000000 -22.508000 10.000000
      vertex -1.244000 21.998000 10.000000
    endloop
  endfacet
  facet normal 0.000000 -1.000000 0.000000
    outer loop
      vertex -2.487000 -31.005000 10.000000
      vertex -2.487000 -31.005000 0.000000
      vertex 2.487000 -31.005000 0.000000
    endloop
  endfacet
  facet normal 0.000000 -1.000000 0.000000
    outer loop
      vertex 2.487000 -31.005000 10.000000
      vertex -2.487000 -31.005000 10.000000
      vertex 2.487000 -31.005000 0.000000
    endloop
  endfacet
  facet normal 0.707107 -0.707107 0.000000
    outer loop
      vertex 2.487000 -31.005000 10.000000
      vertex 2.487000 -31.005000 0.000000
      vertex 6.005000 -27.487000 0.000000
    endloop
  endfacet
  facet normal 0.707107 -0.707107 0.000000
    outer loop
      vertex 6.005000 -27.487000 10.000000
      vertex 2.487000 -31.005000 10.000000
      vertex 6.005000 -27.487000 0.000000
    endloop
  endfacet
  facet normal 1.000000 0.000000 -0.000000
    outer loop
      vertex 6.005000 -27.487000 10.000000
      vertex 6.005000 -27.487000 0.000000
      vertex 6.005000 -22.513000 0.000000
    endloop
  endfacet
  facet normal 1.000000 0.000000 0.000000
    outer loop
      vertex 6.005000 -22.513000 10.000000
      vertex 6.005000 -27.487000 10.000000
      vertex 6.005000 -22.513000 0.000000
    endloop
  endfacet
  facet normal 0.707107 0.707107 0.000000
    outer loop
      vertex 6.000000 -22.508000 0.000000
      vertex 6.000000 -22.508000 10.000000
      vertex 6.005000 -22.513000 0.000000
    endloop
  endfacet
  facet normal 0.707107 0.707107 0.000000
    outer loop
      vertex 6.005000 -22.513000 0.000000
      vertex 6.000000 -22.508000 10.000000
      vertex 6.005000 -22.513000 10.000000
    endloop
  endfacet
  facet normal 1.000000 0.000000 -0.000000
    outer loop
      vertex 6.000000 -17.750000 1.968911
      vertex 6.000000 -22.508000 0.000000
      vertex 6.000000 22.508000 0.000000
    endloop
  endfacet
  facet normal 1.000000 -0.000000 -0.000000
    outer loop
      vertex 6.000000 14.250000 1.968911
      vertex 6.000000 -22.508000 10.000000
      vertex 6.000000 22.508000 0.000000
    endloop
  endfacet
  facet normal 1.000000 0.000000 -0.000000
    outer loop
      vertex 6.000000 -14.250000 1.968911
      vertex 6.000000 -17.750000 1.968911
      vertex 6.000000 22.508000 0.000000
    endloop
  endfacet
  facet normal 1.000000 0.000000 -0.000000
    outer loop
      vertex 6.000000 -22.508000 10.000000
      vertex 6.000000 -22.508000 0.000000
      vertex 6.000000 -17.750000 1.968911
    endloop
  endfacet
  facet normal 1.000000 0.000000 0.000000
    outer loop
      vertex 6.000000 -22.508000 10.000000
      vertex 6.000000 -17.750000 1.968911
      vertex 6.000000 -19.500000 5.000000
    endloop
  endfacet
  facet normal 1.000000 0.000000 -0.000000
    outer loop
      vertex 6.000000 -12.500000 5.000000
      vertex 6.000000 -14.250000 1.968911
      vertex 6.000000 22.508000 0.000000
    endloop
  endfacet
  facet normal 1.000000 0.000000 0.000000
    outer loop
      vertex 6.000000 -22.508000 10.000000
      vertex 6.000000 -19.500000 5.000000
      vertex 6.000000 -17.750000 8.031089
    endloop
  endfacet
  facet normal 1.000000 0.000000 0.000000
    outer loop
      vertex 6.000000 -22.508000 10.000000
      vertex 6.000000 -14.250000 8.031089
      vertex 6.000000 22.508000 0.000000
    endloop
  endfacet
  facet normal 1.000000 0.000000 0.000000
    outer loop
      vertex 6.000000 -22.508000 10.000000
      vertex 6.000000 -17.750000 8.031089
      vertex 6.000000 -14.250000 8.031089
    endloop
  endfacet
  facet normal 1.000000 0.000000 -0.000000
    outer loop
      vertex 6.000000 17.750000 1.968911
      vertex 6.000000 14.250000 1.968911
      vertex 6.000000 22.508000 0.000000
    endloop
  endfacet
  facet normal 1.000000 -0.000000 -0.000000
    outer loop
      vertex 6.000000 12.500000 5.000000
      vertex 6.000000 -22.508000 10.000000
      vertex 6.000000 14.250000 1.968911
    endloop
  endfacet
  facet normal 1.000000 -0.000000 0.000000
    outer loop
      vertex 6.000000 14.250000 8.031089
      vertex 6.000000 -22.508000 10.000000
      vertex 6.000000 12.500000 5.000000
    endloop
  endfacet
  facet normal 1.000000 0.000000 0.000000
    outer loop
      vertex 6.000000 22.508000 10.000000
      vertex 6.000000 -22.508000 10.000000
      vertex 6.000000 14.250000 8.031089
    endloop
  endfacet
  facet normal 1.000000 0.000000 0.000000
    outer loop
      vertex 6.000000 22.508000 10.000000
      vertex 6.000000 14.250000 8.031089
      vertex 6.000000 17.750000 8.031089
    endloop
  endfacet
  facet normal 1.000000 0.000000 0.000000
    outer loop
      vertex 6.000000 22.508000 10.000000
      vertex 6.000000 19.500000 5.000000
      vertex 6.000000 22.508000 0.000000
    endloop
  endfacet
  facet normal 1.000000 0.000000 -0.000000
    outer loop
      vertex 6.000000 19.500000 5.000000
      vertex 6.000000 17.750000 1.968911
      vertex 6.000000 22.508000 0.000000
    endloop
  endfacet
  facet normal 1.000000 0.000000 0.000000
    outer loop
      vertex 6.000000 -14.250000 8.031089
      vertex 6.000000 -12.500000 5.000000
      vertex 6.000000 22.508000 0.000000
    endloop
  endfacet
  facet normal 1.000000 0.000000 0.000000
    outer loop
      vertex 6.000000 17.750000 8.031089
      vertex 6.000000 19.500000 5.000000
      vertex 6.000000 22.508000 10.000000
    endloop
  endfacet
  facet normal 0.707107 -0.707107 0.000000
    outer loop
      vertex 6.000000 22.508000 10.000000
      vertex 6.000000 22.508000 0.000000
      vertex 6.005000 22.513000 0.000000
    endloop
  endfacet
  facet normal 0.707107 -0.707107 0.000000
    outer loop
      vertex 6.005000 22.513000 10.000000
      vertex 6.000000 22.508000 10.000000
      vertex 6.005000 22.513000 0.000000
    endloop
  endfacet
  facet normal 1.000000 0.000000 -0.000000
    outer loop
      vertex 6.005000 22.513000 10.000000
      vertex 6.005000 22.513000 0.000000
      vertex 6.005000 27.487000 0.000000
    endloop
  endfacet
  facet normal 1.000000 0.000000 0.000000
    outer loop
      vertex 6.005000 27.487000 10.000000
      vertex 6.005000 22.513000 10.000000
      vertex 6.005000 27.487000 0.000000
    endloop
  endfacet
  facet normal 0.707107 0.707107 0.000000
    outer loop
      vertex 6.005000 27.487000 0.000000
      vertex 2.487000 31.005000 0.000000
      vertex 2.487000 31.005000 10.000000
    endloop
  endfacet
  facet normal 0.707107 0.707107 -0.000000
    outer loop
      vertex 6.005000 27.487000 10.000000
      vertex 6.005000 27.487000 0.000000
      vertex 2.487000 31.005000 10.000000
    endloop
  endfacet
  facet normal 0.000000 1.000000 0.000000
    outer loop
      vertex -2.487000 31.005000 0.000000
      vertex -2.487000 31.005000 10.000000
      vertex 2.487000 31.005000 0.000000
    endloop
  endfacet
  facet normal 0.000000 1.000000 0.000000
    outer loop
      vertex 2.487000 31.005000 0.000000
      vertex -2.487000 31.005000 10.000000
      vertex 2.487000 31.005000 10.000000
    endloop
  endfacet
  facet normal -0.707107 0.707107 0.000000
    outer loop
      vertex -6.005000 27.487000 0.000000
      vertex -6.005000 27.487000 10.000000
      vertex -2.487000 31.005000 0.000000
    endloop
  endfacet
  facet normal -0.707107 0.707107 0.000000
    outer loop
      vertex -2.487000 31.005000 0.000000
      vertex -6.005000 27.487000 10.000000
      vertex -2.487000 31.005000 10.000000
    endloop
  endfacet
  facet normal -1.000000 -0.000000 -0.000000
    outer loop
      vertex -6.005000 22.513000 0.000000
      vertex -6.005000 22.513000 10.000000
      vertex -6.005000 27.487000 0.000000
    endloop
  endfacet
  facet normal -1.000000 0.000000 0.000000
    outer loop
      vertex -6.005000 27.487000 0.000000
      vertex -6.005000 22.513000 10.000000
      vertex -6.005000 27.487000 10.000000
    endloop
  endfacet
  facet normal -0.707107 -0.707107 0.000000
    outer loop
      vertex -6.005000 22.513000 10.000000
      vertex -6.005000 22.513000 0.000000
      vertex -6.000000 22.508000 0.000000
    endloop
  endfacet
  facet normal -0.707107 -0.707107 0.000000
    outer loop
      vertex -6.000000 22.508000 10.000000
      vertex -6.005000 22.513000 10.000000
      vertex -6.000000 22.508000 0.000000
    endloop
  endfacet
  facet normal -1.000000 -0.000000 -0.000000
    outer loop
      vertex -6.000000 -15.125000 6.515544
      vertex -6.000000 -22.508000 10.000000
      vertex -6.000000 22.508000 0.000000
    endloop
  endfacet
  facet normal -1.000000 0.000000 -0.000000
    outer loop
      vertex -6.000000 15.125000 6.515544
      vertex -6.000000 -22.508000 10.000000
      vertex -6.000000 22.508000 10.000000
    endloop
  endfacet
  facet normal -1.000000 0.000000 -0.000000
    outer loop
      vertex -6.000000 -22.508000 0.000000
      vertex -6.000000 -22.508000 10.000000
      vertex -6.000000 -17.750000 5.000000
    endloop
  endfacet
  facet normal -1.000000 0.000000 0.000000
    outer loop
      vertex -6.000000 -22.508000 0.000000
      vertex -6.000000 -17.750000 5.000000
      vertex -6.000000 -16.875000 3.484456
    endloop
  endfacet
  facet normal -1.000000 -0.000000 0.000000
    outer loop
      vertex -6.000000 -22.508000 0.000000
      vertex -6.000000 -16.875000 3.484456
      vertex -6.000000 22.508000 0.000000
    endloop
  endfacet
  facet normal -1.000000 0.000000 0.000000
    outer loop
      vertex -6.000000 -16.875000 3.484456
      vertex -6.000000 -15.125000 3.484456
      vertex -6.000000 22.508000 0.000000
    endloop
  endfacet
  facet normal -1.000000 0.000000 0.000000
    outer loop
      vertex -6.000000 16.875000 3.484456
      vertex -6.000000 22.508000 0.000000
      vertex -6.000000 15.125000 3.484456
    endloop
  endfacet
  facet normal -1.000000 -0.000000 -0.000000
    outer loop
      vertex -6.000000 -16.875000 6.515544
      vertex -6.000000 -22.508000 10.000000
      vertex -6.000000 -15.125000 6.515544
    endloop
  endfacet
  facet normal -1.000000 -0.000000 -0.000000
    outer loop
      vertex -6.000000 -14.250000 5.000000
      vertex -6.000000 -15.125000 6.515544
      vertex -6.000000 22.508000 0.000000
    endloop
  endfacet
  facet normal -1.000000 0.000000 -0.000000
    outer loop
      vertex -6.000000 -17.750000 5.000000
      vertex -6.000000 -22.508000 10.000000
      vertex -6.000000 -16.875000 6.515544
    endloop
  endfacet
  facet normal -1.000000 0.000000 0.000000
    outer loop
      vertex -6.000000 15.125000 3.484456
      vertex -6.000000 -22.508000 10.000000
      vertex -6.000000 14.250000 5.000000
    endloop
  endfacet
  facet normal -1.000000 0.000000 0.000000
    outer loop
      vertex -6.000000 22.508000 0.000000
      vertex -6.000000 -22.508000 10.000000
      vertex -6.000000 15.125000 3.484456
    endloop
  endfacet
  facet normal -1.000000 -0.000000 0.000000
    outer loop
      vertex -6.000000 15.125000 6.515544
      vertex -6.000000 22.508000 10.000000
      vertex -6.000000 16.875000 6.515544
    endloop
  endfacet
  facet normal -1.000000 0.000000 0.000000
    outer loop
      vertex -6.000000 22.508000 0.000000
      vertex -6.000000 16.875000 3.484456
      vertex -6.000000 22.508000 10.000000
    endloop
  endfacet
  facet normal -1.000000 0.000000 0.000000
    outer loop
      vertex -6.000000 16.875000 3.484456
      vertex -6.000000 17.750000 5.000000
      vertex -6.000000 22.508000 10.000000
    endloop
  endfacet
  facet normal -1.000000 0.000000 -0.000000
    outer loop
      vertex -6.000000 17.750000 5.000000
      vertex -6.000000 16.875000 6.515544
      vertex -6.000000 22.508000 10.000000
    endloop
  endfacet
  facet normal -1.000000 0.000000 -0.000000
    outer loop
      vertex -6.000000 14.250000 5.000000
      vertex -6.000000 -22.508000 10.000000
      vertex -6.000000 15.125000 6.515544
    endloop
  endfacet
  facet normal -1.000000 0.000000 0.000000
    outer loop
      vertex -6.000000 -14.250000 5.000000
      vertex -6.000000 22.508000 0.000000
      vertex -6.000000 -15.125000 3.484456
    endloop
  endfacet
  facet normal -0.707107 0.707107 0.000000
    outer loop
      vertex -6.005000 -22.513000 0.000000
      vertex -6.005000 -22.513000 10.000000
      vertex -6.000000 -22.508000 0.000000
    endloop
  endfacet
  facet normal -0.707107 0.707107 0.000000
    outer loop
      vertex -6.000000 -22.508000 0.000000
      vertex -6.005000 -22.513000 10.000000
      vertex -6.000000 -22.508000 10.000000
    endloop
  endfacet
  facet normal 0.707308 -0.706906 0.000000
    outer loop
      vertex -3.002000 -23.756000 10.000000
      vertex -3.002000 -23.756000 0.000000
      vertex -1.244000 -21.997000 0.000000
    endloop
  endfacet
  facet normal 0.707308 -0.706906 0.000000
    outer loop
      vertex -1.244000 -21.997000 10.000000
      vertex -3.002000 -23.756000 10.000000
      vertex -1.244000 -21.997000 0.000000
    endloop
  endfacet
  facet normal 1.000000 -0.000402 0.000000
    outer loop
      vertex -3.003000 -26.244000 10.000000
      vertex -3.003000 -26.244000 0.000000
      vertex -3.002000 -23.756000 0.000000
    endloop
  endfacet
  facet normal 1.000000 -0.000402 0.000000
    outer loop
      vertex -3.002000 -23.756000 10.000000
      vertex -3.003000 -26.244000 10.000000
      vertex -3.002000 -23.756000 0.000000
    endloop
  endfacet
  facet normal -0.000402 -1.000000 0.000000
    outer loop
      vertex -1.244000 -21.997000 10.000000
      vertex -1.244000 -21.997000 0.000000
      vertex 1.244000 -21.998000 0.000000
    endloop
  endfacet
  facet normal -0.000402 -1.000000 0.000000
    outer loop
      vertex 1.244000 -21.998000 10.000000
      vertex -1.244000 -21.997000 10.000000
      vertex 1.244000 -21.998000 0.000000
    endloop
  endfacet
  facet normal -0.706906 -0.707308 0.000000
    outer loop
      vertex 1.244000 -21.998000 10.000000
      vertex 1.244000 -21.998000 0.000000
      vertex 3.003000 -23.756000 0.000000
    endloop
  endfacet
  facet normal -0.706906 -0.707308 0.000000
    outer loop
      vertex 3.003000 -23.756000 10.000000
      vertex 1.244000 -21.998000 10.000000
      vertex 3.003000 -23.756000 0.000000
    endloop
  endfacet
  facet normal -1.000000 0.000402 0.000000
    outer loop
      vertex 3.002000 -26.244000 0.000000
      vertex 3.002000 -26.244000 10.000000
      vertex 3.003000 -23.756000 0.000000
    endloop
  endfacet
  facet normal -1.000000 0.000402 0.000000
    outer loop
      vertex 3.003000 -23.756000 0.000000
      vertex 3.002000 -26.244000 10.000000
      vertex 3.003000 -23.756000 10.000000
    endloop
  endfacet
  facet normal -0.707308 0.706906 0.000000
    outer loop
      vertex 1.244000 -28.003000 0.000000
      vertex 1.244000 -28.003000 10.000000
      vertex 3.002000 -26.244000 0.000000
    endloop
  endfacet
  facet normal -0.707308 0.706906 0.000000
    outer loop
      vertex 3.002000 -26.244000 0.000000
      vertex 1.244000 -28.003000 10.000000
      vertex 3.002000 -26.244000 10.000000
    endloop
  endfacet
  facet normal 0.000402 1.000000 0.000000
    outer loop
      vertex -1.244000 -28.002000 0.000000
      vertex -1.244000 -28.002000 10.000000
      vertex 1.244000 -28.003000 0.000000
    endloop
  endfacet
  facet normal 0.000402 1.000000 0.000000
    outer loop
      vertex 1.244000 -28.003000 0.000000
      vertex -1.244000 -28.002000 10.000000
      vertex 1.244000 -28.003000 10.000000
    endloop
  endfacet
  facet normal 0.706906 0.707308 0.000000
    outer loop
      vertex -3.003000 -26.244000 0.000000
      vertex -3.003000 -26.244000 10.000000
      vertex -1.244000 -28.002000 0.000000
    endloop
  endfacet
  facet normal 0.706906 0.707308 0.000000
    outer loop
      vertex -1.244000 -28.002000 0.000000
      vertex -3.003000 -26.244000 10.000000
      vertex -1.244000 -28.002000 10.000000
    endloop
  endfacet
  facet normal 0.707308 -0.706906 0.000000
    outer loop
      vertex -3.002000 26.244000 10.000000
      vertex -3.002000 26.244000 0.000000
      vertex -1.244000 28.003000 0.000000
    endloop
  endfacet
  facet normal 0.707308 -0.706906 0.000000
    outer loop
      vertex -1.244000 28.003000 10.000000
      vertex -3.002000 26.244000 10.000000
      vertex -1.244000 28.003000 0.000000
    endloop
  endfacet
  facet normal 1.000000 -0.000402 0.000000
    outer loop
      vertex -3.003000 23.756000 10.000000
      vertex -3.003000 23.756000 0.000000
      vertex -3.002000 26.244000 0.000000
    endloop
  endfacet
  facet normal 1.000000 -0.000402 0.000000
    outer loop
      vertex -3.002000 26.244000 10.000000
      vertex -3.003000 23.756000 10.000000
      vertex -3.002000 26.244000 0.000000
    endloop
  endfacet
  facet normal -0.000402 -1.000000 0.000000
    outer loop
      vertex -1.244000 28.003000 10.000000
      vertex -1.244000 28.003000 0.000000
      vertex 1.244000 28.002000 0.000000
    endloop
  endfacet
  facet normal -0.000402 -1.000000 0.000000
    outer loop
      vertex 1.244000 28.002000 10.000000
      vertex -1.244000 28.003000 10.000000
      vertex 1.244000 28.002000 0.000000
    endloop
  endfacet
  facet normal -0.706906 -0.707308 0.000000
    outer loop
      vertex 1.244000 28.002000 10.000000
      vertex 1.244000 28.002000 0.000000
      vertex 3.003000 26.244000 0.000000
    endloop
  endfacet
  facet normal -0.706906 -0.707308 0.000000
    outer loop
      vertex 3.003000 26.244000 10.000000
      vertex 1.244000 28.002000 10.000000
      vertex 3.003000 26.244000 0.000000
    endloop
  endfacet
  facet normal -1.000000 0.000402 0.000000
    outer loop
      vertex 3.002000 23.756000 0.000000
      vertex 3.002000 23.756000 10.000000
      vertex 3.003000 26.244000 0.000000
    endloop
  endfacet
  facet normal -1.000000 0.000402 0.000000
    outer loop
      vertex 3.003000 26.244000 0.000000
      vertex 3.002000 23.756000 10.000000
      vertex 3.003000 26.244000 10.000000
    endloop
  endfacet
  facet normal -0.707308 0.706906 0.000000
    outer loop
      vertex 1.244000 21.997000 0.000000
      vertex 1.244000 21.997000 10.000000
      vertex 3.002000 23.756000 0.000000
    endloop
  endfacet
  facet normal -0.707308 0.706906 0.000000
    outer loop
      vertex 3.002000 23.756000 0.000000
      vertex 1.244000 21.997000 10.000000
      vertex 3.002000 23.756000 10.000000
    endloop
  endfacet
  facet normal 0.000402 1.000000 0.000000
    outer loop
      vertex -1.244000 21.998000 0.000000
      vertex -1.244000 21.998000 10.000000
      vertex 1.244000 21.997000 0.000000
    endloop
  endfacet
  facet normal 0.000402 1.000000 0.000000
    outer loop
      vertex 1.244000 21.997000 0.000000
      vertex -1.244000 21.998000 10.000000
      vertex 1.244000 21.997000 10.000000
    endloop
  endfacet
  facet normal 0.706906 0.707308 0.000000
    outer loop
      vertex -3.003000 23.756000 0.000000
      vertex -3.003000 23.756000 10.000000
      vertex -1.244000 21.998000 0.000000
    endloop
  endfacet
  facet normal 0.706906 0.707308 0.000000
    outer loop
      vertex -1.244000 21.998000 0.000000
      vertex -3.003000 23.756000 10.000000
      vertex -1.244000 21.998000 10.000000
    endloop
  endfacet
  facet normal -0.000000 0.000000 1.000000
    outer loop
      vertex 6.000000 -17.750000 1.968911
      vertex 6.000000 -14.250000 1.968911
      vertex 3.000000 -14.250000 1.968911
    endloop
  endfacet
  facet normal -0.000000 0.000000 1.000000
    outer loop
      vertex 3.000000 -17.750000 1.968911
      vertex 6.000000 -17.750000 1.968911
      vertex 3.000000 -14.250000 1.968911
    endloop
  endfacet
  facet normal -0.000000 0.866025 0.500000
    outer loop
      vertex 6.000000 -17.750000 1.968911
      vertex 3.000000 -17.750000 1.968911
      vertex 6.000000 -19.500000 5.000000
    endloop
  endfacet
  facet normal -0.000000 0.866025 0.500000
    outer loop
      vertex 6.000000 -19.500000 5.000000
      vertex 3.000000 -17.750000 1.968911
      vertex 3.000000 -19.500000 5.000000
    endloop
  endfacet
  facet normal -0.000000 -0.866025 0.500000
    outer loop
      vertex 3.000000 -14.250000 1.968911
      vertex 6.000000 -14.250000 1.968911
      vertex 6.000000 -12.500000 5.000000
    endloop
  endfacet
  facet normal 0.000000 -0.866025 0.500000
    outer loop
      vertex 3.000000 -12.500000 5.000000
      vertex 3.000000 -14.250000 1.968911
      vertex 6.000000 -12.500000 5.000000
    endloop
  endfacet
  facet normal -0.000000 -0.866025 -0.500000
    outer loop
      vertex 3.000000 -12.500000 5.000000
      vertex 6.000000 -12.500000 5.000000
      vertex 6.000000 -14.250000 8.031089
    endloop
  endfacet
  facet normal -0.000000 -0.866025 -0.500000
    outer loop
      vertex 3.000000 -14.250000 8.031089
      vertex 3.000000 -12.500000 5.000000
      vertex 6.000000 -14.250000 8.031089
    endloop
  endfacet
  facet normal 0.000000 0.000000 -1.000000
    outer loop
      vertex 6.000000 -14.250000 8.031089
      vertex 6.000000 -17.750000 8.031089
      vertex 3.000000 -14.250000 8.031089
    endloop
  endfacet
  facet normal 0.000000 0.000000 -1.000000
    outer loop
      vertex 3.000000 -14.250000 8.031089
      vertex 6.000000 -17.750000 8.031089
      vertex 3.000000 -17.750000 8.031089
    endloop
  endfacet
  facet normal 0.000000 0.866025 -0.500000
    outer loop
      vertex 6.000000 -19.500000 5.000000
      vertex 3.000000 -19.500000 5.000000
      vertex 6.000000 -17.750000 8.031089
    endloop
  endfacet
  facet normal 0.000000 0.866025 -0.500000
    outer loop
      vertex 6.000000 -17.750000 8.031089
      vertex 3.000000 -19.500000 5.000000
      vertex 3.000000 -17.750000 8.031089
    endloop
  endfacet
  facet normal -0.000000 0.866025 0.500000
    outer loop
      vertex 6.000000 14.250000 1.968911
      vertex 3.000000 14.250000 1.968911
      vertex 6.000000 12.500000 5.000000
    endloop
  endfacet
  facet normal -0.000000 0.866025 0.500000
    outer loop
      vertex 6.000000 12.500000 5.000000
      vertex 3.000000 14.250000 1.968911
      vertex 3.000000 12.500000 5.000000
    endloop
  endfacet
  facet normal -0.000000 0.000000 1.000000
    outer loop
      vertex 6.000000 14.250000 1.968911
      vertex 6.000000 17.750000 1.968911
      vertex 3.000000 17.750000 1.968911
    endloop
  endfacet
  facet normal -0.000000 0.000000 1.000000
    outer loop
      vertex 3.000000 14.250000 1.968911
      vertex 6.000000 14.250000 1.968911
      vertex 3.000000 17.750000 1.968911
    endloop
  endfacet
  facet normal -0.000000 -0.866025 0.500000
    outer loop
      vertex 3.000000 17.750000 1.968911
      vertex 6.000000 17.750000 1.968911
      vertex 6.000000 19.500000 5.000000
    endloop
  endfacet
  facet normal 0.000000 -0.866025 0.500000
    outer loop
      vertex 3.000000 19.500000 5.000000
      vertex 3.000000 17.750000 1.968911
      vertex 6.000000 19.500000 5.000000
    endloop
  endfacet
  facet normal -0.000000 -0.866025 -0.500000
    outer loop
      vertex 3.000000 19.500000 5.000000
      vertex 6.000000 19.500000 5.000000
      vertex 6.000000 17.750000 8.031089
    endloop
  endfacet
  facet normal -0.000000 -0.866025 -0.500000
    outer loop
      vertex 3.000000 17.750000 8.031089
      vertex 3.000000 19.500000 5.000000
      vertex 6.000000 17.750000 8.031089
    endloop
  endfacet
  facet normal 0.000000 0.000000 -1.000000
    outer loop
      vertex 6.000000 17.750000 8.031089
      vertex 6.000000 14.250000 8.031089
      vertex 3.000000 17.750000 8.031089
    endloop
  endfacet
  facet normal 0.000000 0.000000 -1.000000
    outer loop
      vertex 3.000000 17.750000 8.031089
      vertex 6.000000 14.250000 8.031089
      vertex 3.000000 14.250000 8.031089
    endloop
  endfacet
  facet normal 0.000000 0.866025 -0.500000
    outer loop
      vertex 6.000000 12.500000 5.000000
      vertex 3.000000 12.500000 5.000000
      vertex 6.000000 14.250000 8.031089
    endloop
  endfacet
  facet normal 0.000000 0.866025 -0.500000
    outer loop
      vertex 6.000000 14.250000 8.031089
      vertex 3.000000 12.500000 5.000000
      vertex 3.000000 14.250000 8.031089
    endloop
  endfacet
  facet normal 0.000000 0.866025 -0.500000
    outer loop
      vertex 3.000000 -16.875000 6.515544
      vertex 3.000000 -17.750000 5.000000
      vertex -6.000000 -16.875000 6.515544
    endloop
  endfacet
  facet normal 0.000000 0.866025 -0.500000
    outer loop
      vertex -6.000000 -16.875000 6.515544
      vertex 3.000000 -17.750000 5.000000
      vertex -6.000000 -17.750000 5.000000
    endloop
  endfacet
  facet normal 0.000000 0.866025 0.500000
    outer loop
      vertex 3.000000 -16.875000 3.484456
      vertex -6.000000 -16.875000 3.484456
      vertex 3.000000 -17.750000 5.000000
    endloop
  endfacet
  facet normal 0.000000 0.866025 0.500000
    outer loop
      vertex 3.000000 -17.750000 5.000000
      vertex -6.000000 -16.875000 3.484456
      vertex -6.000000 -17.750000 5.000000
    endloop
  endfacet
  facet normal 0.000000 0.000000 -1.000000
    outer loop
      vertex 3.000000 -15.125000 6.515544
      vertex 3.000000 -16.875000 6.515544
      vertex -6.000000 -15.125000 6.515544
    endloop
  endfacet
  facet normal 0.000000 0.000000 -1.000000
    outer loop
      vertex -6.000000 -15.125000 6.515544
      vertex 3.000000 -16.875000 6.515544
      vertex -6.000000 -16.875000 6.515544
    endloop
  endfacet
  facet normal -0.000000 -0.866025 -0.500000
    outer loop
      vertex -6.000000 -14.250000 5.000000
      vertex 3.000000 -14.250000 5.000000
      vertex 3.000000 -15.125000 6.515544
    endloop
  endfacet
  facet normal -0.000000 -0.866025 -0.500000
    outer loop
      vertex -6.000000 -15.125000 6.515544
      vertex -6.000000 -14.250000 5.000000
      vertex 3.000000 -15.125000 6.515544
    endloop
  endfacet
  facet normal -0.000000 -0.866025 0.500000
    outer loop
      vertex 3.000000 -15.125000 3.484456
      vertex 3.000000 -14.250000 5.000000
      vertex -6.000000 -14.250000 5.000000
    endloop
  endfacet
  facet normal -0.000000 -0.866025 0.500000
    outer loop
      vertex -6.000000 -15.125000 3.484456
      vertex 3.000000 -15.125000 3.484456
      vertex -6.000000 -14.250000 5.000000
    endloop
  endfacet
  facet normal -0.000000 0.000000 1.000000
    outer loop
      vertex 3.000000 -16.875000 3.484456
      vertex 3.000000 -15.125000 3.484456
      vertex -6.000000 -15.125000 3.484456
    endloop
  endfacet
  facet normal -0.000000 0.000000 1.000000
    outer loop
      vertex -6.000000 -16.875000 3.484456
      vertex 3.000000 -16.875000 3.484456
      vertex -6.000000 -15.125000 3.484456
    endloop
  endfacet
  facet normal 0.000000 0.866025 -0.500000
    outer loop
      vertex 3.000000 15.125000 6.515544
      vertex 3.000000 14.250000 5.000000
      vertex -6.000000 15.125000 6.515544
    endloop
  endfacet
  facet normal 0.000000 0.866025 -0.500000
    outer loop
      vertex -6.000000 15.125000 6.515544
      vertex 3.000000 14.250000 5.000000
      vertex -6.000000 14.250000 5.000000
    endloop
  endfacet
  facet normal 0.000000 0.866025 0.500000
    outer loop
      vertex 3.000000 15.125000 3.484456
      vertex -6.000000 15.125000 3.484456
      vertex 3.000000 14.250000 5.000000
    endloop
  endfacet
  facet normal 0.000000 0.866025 0.500000
    outer loop
      vertex 3.000000 14.250000 5.000000
      vertex -6.000000 15.125000 3.484456
      vertex -6.000000 14.250000 5.000000
    endloop
  endfacet
  facet normal 0.000000 0.000000 -1.000000
    outer loop
      vertex 3.000000 16.875000 6.515544
      vertex 3.000000 15.125000 6.515544
      vertex -6.000000 16.875000 6.515544
    endloop
  endfacet
  facet normal 0.000000 0.000000 -1.000000
    outer loop
      vertex -6.000000 16.875000 6.515544
      vertex 3.000000 15.125000 6.515544
      vertex -6.000000 15.125000 6.515544
    endloop
  endfacet
  facet normal -0.000000 -0.866025 -0.500000
    outer loop
      vertex -6.000000 17.750000 5.000000
      vertex 3.000000 17.750000 5.000000
      vertex 3.000000 16.875000 6.515544
    endloop
  endfacet
  facet normal -0.000000 -0.866025 -0.500000
    outer loop
      vertex -6.000000 16.875000 6.515544
      vertex -6.000000 17.750000 5.000000
      vertex 3.000000 16.875000 6.515544
    endloop
  endfacet
  facet normal -0.000000 -0.866025 0.500000
    outer loop
      vertex 3.000000 16.875000 3.484456
      vertex 3.000000 17.750000 5.000000
      vertex -6.000000 17.750000 5.000000
    endloop
  endfacet
  facet normal -0.000000 -0.866025 0.500000
    outer loop
      vertex -6.000000 16.875000 3.484456
      vertex 3.000000 16.875000 3.484456
      vertex -6.000000 17.750000 5.000000
    endloop
  endfacet
  facet normal -0.000000 0.000000 1.000000
    outer loop
      vertex 3.000000 15.125000 3.484456
      vertex 3.000000 16.875000 3.484456
      vertex -6.000000 16.875000 3.484456
    endloop
  endfacet
  facet normal -0.000000 0.000000 1.000000
    outer loop
      vertex -6.000000 15.125000 3.484456
      vertex 3.000000 15.125000 3.484456
      vertex -6.000000 16.875000 3.484456
    endloop
  endfacet
  facet normal 1.000000 0.000000 0.000000
    outer loop
      vertex 3.000000 -14.250000 8.031089
      vertex 3.000000 -17.750000 8.031089
      vertex 3.000000 -19.500000 5.000000
    endloop
  endfacet
  facet normal 1.000000 -0.000000 0.000000
    outer loop
      vertex 3.000000 -16.875000 6.515544
      vertex 3.000000 -14.250000 8.031089
      vertex 3.000000 -19.500000 5.000000
    endloop
  endfacet
  facet normal 1.000000 -0.000000 0.000000
    outer loop
      vertex 3.000000 -14.250000 5.000000
      vertex 3.000000 -14.250000 8.031089
      vertex 3.000000 -15.125000 6.515544
    endloop
  endfacet
  facet normal 1.000000 0.000000 0.000000
    outer loop
      vertex 3.000000 -17.750000 1.968911
      vertex 3.000000 -17.750000 5.000000
      vertex 3.000000 -19.500000 5.000000
    endloop
  endfacet
  facet normal 1.000000 -0.000000 0.000000
    outer loop
      vertex 3.000000 -17.750000 5.000000
      vertex 3.000000 -16.875000 6.515544
      vertex 3.000000 -19.500000 5.000000
    endloop
  endfacet
  facet normal 1.000000 0.000000 0.000000
    outer loop
      vertex 3.000000 -15.125000 3.484456
      vertex 3.000000 -16.875000 3.484456
      vertex 3.000000 -17.750000 1.968911
    endloop
  endfacet
  facet normal 1.000000 0.000000 0.000000
    outer loop
      vertex 3.000000 -12.500000 5.000000
      vertex 3.000000 -14.250000 5.000000
      vertex 3.000000 -14.250000 1.968911
    endloop
  endfacet
  facet normal 1.000000 -0.000000 0.000000
    outer loop
      vertex 3.000000 -12.500000 5.000000
      vertex 3.000000 -14.250000 8.031089
      vertex 3.000000 -14.250000 5.000000
    endloop
  endfacet
  facet normal 1.000000 -0.000000 0.000000
    outer loop
      vertex 3.000000 -14.250000 1.968911
      vertex 3.000000 -15.125000 3.484456
      vertex 3.000000 -17.750000 1.968911
    endloop
  endfacet
  facet normal 1.000000 -0.000000 0.000000
    outer loop
      vertex 3.000000 -17.750000 1.968911
      vertex 3.000000 -16.875000 3.484456
      vertex 3.000000 -17.750000 5.000000
    endloop
  endfacet
  facet normal 1.000000 0.000000 0.000000
    outer loop
      vertex 3.000000 -14.250000 5.000000
      vertex 3.000000 -15.125000 3.484456
      vertex 3.000000 -14.250000 1.968911
    endloop
  endfacet
  facet normal 1.000000 0.000000 0.000000
    outer loop
      vertex 3.000000 -16.875000 6.515544
      vertex 3.000000 -15.125000 6.515544
      vertex 3.000000 -14.250000 8.031089
    endloop
  endfacet
  facet normal 1.000000 0.000000 0.000000
    outer loop
      vertex 3.000000 17.750000 8.031089
      vertex 3.000000 14.250000 8.031089
      vertex 3.000000 12.500000 5.000000
    endloop
  endfacet
  facet normal 1.000000 -0.000000 0.000000
    outer loop
      vertex 3.000000 15.125000 6.515544
      vertex 3.000000 17.750000 8.031089
      vertex 3.000000 12.500000 5.000000
    endloop
  endfacet
  facet normal 1.000000 -0.000000 0.000000
    outer loop
      vertex 3.000000 17.750000 5.000000
      vertex 3.000000 17.750000 8.031089
      vertex 3.000000 16.875000 6.515544
    endloop
  endfacet
  facet normal 1.000000 0.000000 0.000000
    outer loop
      vertex 3.000000 14.250000 1.968911
      vertex 3.000000 14.250000 5.000000
      vertex 3.000000 12.500000 5.000000
    endloop
  endfacet
  facet normal 1.000000 -0.000000 0.000000
    outer loop
      vertex 3.000000 14.250000 5.000000
      vertex 3.000000 15.125000 6.515544
      vertex 3.000000 12.500000 5.000000
    endloop
  endfacet
  facet normal 1.000000 0.000000 0.000000
    outer loop
      vertex 3.000000 16.875000 3.484456
      vertex 3.000000 15.125000 3.484456
      vertex 3.000000 14.250000 1.968911
    endloop
  endfacet
  facet normal 1.000000 0.000000 0.000000
    outer loop
      vertex 3.000000 19.500000 5.000000
      vertex 3.000000 17.750000 5.000000
      vertex 3.000000 17.750000 1.968911
    endloop
  endfacet
  facet normal 1.000000 -0.000000 0.000000
    outer loop
      vertex 3.000000 19.500000 5.000000
      vertex 3.000000 17.750000 8.031089
      vertex 3.000000 17.750000 5.000000
    endloop
  endfacet
  facet normal 1.000000 -0.000000 0.000000
    outer loop
      vertex 3.000000 17.750000 1.968911
      vertex 3.000000 16.875000 3.484456
      vertex 3.000000 14.250000 1.968911
    endloop
  endfacet
  facet normal 1.000000 -0.000000 0.000000
    outer loop
      vertex 3.000000 14.250000 1.968911
      vertex 3.000000 15.125000 3.484456
      vertex 3.000000 14.250000 5.000000
    endloop
  endfacet
  facet normal 1.000000 0.000000 0.000000
    outer loop
      vertex 3.000000 17.750000 5.000000
      vertex 3.000000 16.875000 3.484456
      vertex 3.000000 17.750000 1.968911
    endloop
  endfacet
  facet normal 1.000000 0.000000 0.000000
    outer loop
      vertex 3.000000 15.125000 6.515544
      vertex 3.000000 16.875000 6.515544
      vertex 3.000000 17.750000 8.031089
    endloop
  endfacet
endsolid OpenSCAD_Model
